<?xml version="1.0" encoding="UTF-8"?>
<!--Generator: Apple Native CoreSVG 232.5-->
<!DOCTYPE svg
PUBLIC "-//W3C//DTD SVG 1.1//EN"
       "http://www.w3.org/Graphics/SVG/1.1/DTD/svg11.dtd">
<svg version="1.1" xmlns="http://www.w3.org/2000/svg" xmlns:xlink="http://www.w3.org/1999/xlink" width="3300" height="2200">
 <!--glyph: "", point size: 100.0, font version: "19.2d2e1", template writer version: "128"-->
 <style>.SFSymbolsPreviewWireframe {fill:none;opacity:1.0;stroke:black;stroke-width:0.5}
</style>
 <g id="Notes">
  <rect height="2200" id="artboard" style="fill:white;opacity:1" width="3300" x="0" y="0"/>
  <line style="fill:none;stroke:black;opacity:1;stroke-width:0.5;" x1="263" x2="3036" y1="292" y2="292"/>
  <text style="stroke:none;fill:black;font-family:sans-serif;font-size:13;font-weight:bold;" transform="matrix(1 0 0 1 263 322)">Weight/Scale Variations</text>
  <text style="stroke:none;fill:black;font-family:sans-serif;font-size:13;text-anchor:middle;" transform="matrix(1 0 0 1 559.711 322)">Ultralight</text>
  <text style="stroke:none;fill:black;font-family:sans-serif;font-size:13;text-anchor:middle;" transform="matrix(1 0 0 1 856.422 322)">Thin</text>
  <text style="stroke:none;fill:black;font-family:sans-serif;font-size:13;text-anchor:middle;" transform="matrix(1 0 0 1 1153.13 322)">Light</text>
  <text style="stroke:none;fill:black;font-family:sans-serif;font-size:13;text-anchor:middle;" transform="matrix(1 0 0 1 1449.84 322)">Regular</text>
  <text style="stroke:none;fill:black;font-family:sans-serif;font-size:13;text-anchor:middle;" transform="matrix(1 0 0 1 1746.56 322)">Medium</text>
  <text style="stroke:none;fill:black;font-family:sans-serif;font-size:13;text-anchor:middle;" transform="matrix(1 0 0 1 2043.27 322)">Semibold</text>
  <text style="stroke:none;fill:black;font-family:sans-serif;font-size:13;text-anchor:middle;" transform="matrix(1 0 0 1 2339.98 322)">Bold</text>
  <text style="stroke:none;fill:black;font-family:sans-serif;font-size:13;text-anchor:middle;" transform="matrix(1 0 0 1 2636.69 322)">Heavy</text>
  <text style="stroke:none;fill:black;font-family:sans-serif;font-size:13;text-anchor:middle;" transform="matrix(1 0 0 1 2933.4 322)">Black</text>
  <line style="fill:none;stroke:black;opacity:1;stroke-width:0.5;" x1="263" x2="3036" y1="1903" y2="1903"/>
  <g transform="matrix(0.2 0 0 0.2 263 1933)">
   <path d="m46.2402 4.15039c21.5332 0 39.4531-17.8711 39.4531-39.4043s-17.9688-39.4043-39.502-39.4043c-21.4844 0-39.3555 17.8711-39.3555 39.4043s17.9199 39.4043 39.4043 39.4043Zm0-7.42188c-17.7246 0-31.8848-14.209-31.8848-31.9824s14.1113-31.9824 31.8359-31.9824c17.7734 0 32.0312 14.209 32.0312 31.9824s-14.209 31.9824-31.9824 31.9824Zm-17.9688-31.9824c0 2.14844 1.51367 3.61328 3.75977 3.61328h10.498v10.5957c0 2.19727 1.46484 3.71094 3.61328 3.71094 2.24609 0 3.71094-1.51367 3.71094-3.71094v-10.5957h10.5957c2.19727 0 3.71094-1.46484 3.71094-3.61328 0-2.19727-1.51367-3.71094-3.71094-3.71094h-10.5957v-10.5469c0-2.24609-1.46484-3.75977-3.71094-3.75977-2.14844 0-3.61328 1.51367-3.61328 3.75977v10.5469h-10.498c-2.24609 0-3.75977 1.51367-3.75977 3.71094Z"/>
  </g>
  <g transform="matrix(0.2 0 0 0.2 281.506 1933)">
   <path d="m58.5449 14.5508c27.2461 0 49.8047-22.6074 49.8047-49.8047 0-27.2461-22.6074-49.8047-49.8535-49.8047-27.1973 0-49.7559 22.5586-49.7559 49.8047 0 27.1973 22.6074 49.8047 49.8047 49.8047Zm0-8.30078c-23.0469 0-41.4551-18.457-41.4551-41.5039s18.3594-41.5039 41.4062-41.5039 41.5527 18.457 41.5527 41.5039-18.457 41.5039-41.5039 41.5039Zm-22.6562-41.5039c0 2.39258 1.66016 4.00391 4.15039 4.00391h14.3555v14.4043c0 2.44141 1.66016 4.15039 4.05273 4.15039 2.44141 0 4.15039-1.66016 4.15039-4.15039v-14.4043h14.4043c2.44141 0 4.15039-1.61133 4.15039-4.00391 0-2.44141-1.70898-4.15039-4.15039-4.15039h-14.4043v-14.3555c0-2.49023-1.70898-4.19922-4.15039-4.19922-2.39258 0-4.05273 1.70898-4.05273 4.19922v14.3555h-14.3555c-2.49023 0-4.15039 1.70898-4.15039 4.15039Z"/>
  </g>
  <g transform="matrix(0.2 0 0 0.2 304.924 1933)">
   <path d="m74.8535 28.3203c34.8145 0 63.623-28.8086 63.623-63.5742 0-34.8145-28.8574-63.623-63.6719-63.623-34.7656 0-63.5254 28.8086-63.5254 63.623 0 34.7656 28.8086 63.5742 63.5742 63.5742Zm0-9.08203c-30.1758 0-54.4434-24.3164-54.4434-54.4922 0-30.2246 24.2188-54.4922 54.3945-54.4922 30.2246 0 54.541 24.2676 54.541 54.4922 0 30.1758-24.2676 54.4922-54.4922 54.4922Zm-28.8574-54.4922c0 2.58789 1.85547 4.39453 4.58984 4.39453h19.7266v19.7754c0 2.68555 1.85547 4.58984 4.44336 4.58984 2.68555 0 4.54102-1.85547 4.54102-4.58984v-19.7754h19.7754c2.68555 0 4.58984-1.80664 4.58984-4.39453 0-2.73438-1.85547-4.58984-4.58984-4.58984h-19.7754v-19.7266c0-2.73438-1.85547-4.63867-4.54102-4.63867-2.58789 0-4.44336 1.9043-4.44336 4.63867v19.7266h-19.7266c-2.73438 0-4.58984 1.85547-4.58984 4.58984Z"/>
  </g>
  <text style="stroke:none;fill:black;font-family:sans-serif;font-size:13;font-weight:bold;" transform="matrix(1 0 0 1 263 1953)">Design Variations</text>
  <text style="stroke:none;fill:black;font-family:sans-serif;font-size:13;" transform="matrix(1 0 0 1 263 1971)">Symbols are supported in up to nine weights and three scales.</text>
  <text style="stroke:none;fill:black;font-family:sans-serif;font-size:13;" transform="matrix(1 0 0 1 263 1989)">For optimal layout with text and other symbols, vertically align</text>
  <text style="stroke:none;fill:black;font-family:sans-serif;font-size:13;" transform="matrix(1 0 0 1 263 2007)">symbols with the adjacent text.</text>
  <line style="fill:none;stroke:#00AEEF;stroke-width:0.5;opacity:1.0;" x1="776" x2="776" y1="1919" y2="1933"/>
  <g transform="matrix(0.2 0 0 0.2 776 1933)">
   <path d="m16.5527 0.78125c2.58789 0 3.85742-0.976562 4.78516-3.71094l6.29883-17.2363h28.8086l6.29883 17.2363c0.927734 2.73438 2.19727 3.71094 4.73633 3.71094 2.58789 0 4.24805-1.5625 4.24805-4.00391 0-0.830078-0.146484-1.61133-0.537109-2.63672l-22.9004-60.9863c-1.12305-2.97852-3.125-4.49219-6.25-4.49219-3.02734 0-5.07812 1.46484-6.15234 4.44336l-22.9004 61.084c-0.390625 1.02539-0.537109 1.80664-0.537109 2.63672 0 2.44141 1.5625 3.95508 4.10156 3.95508Zm13.4766-28.3691 11.8652-32.8613h0.244141l11.8652 32.8613Z"/>
  </g>
  <line style="fill:none;stroke:#00AEEF;stroke-width:0.5;opacity:1.0;" x1="792.836" x2="792.836" y1="1919" y2="1933"/>
  <text style="stroke:none;fill:black;font-family:sans-serif;font-size:13;font-weight:bold;" transform="matrix(1 0 0 1 776 1953)">Margins</text>
  <text style="stroke:none;fill:black;font-family:sans-serif;font-size:13;" transform="matrix(1 0 0 1 776 1971)">Leading and trailing margins on the left and right side of each symbol</text>
  <text style="stroke:none;fill:black;font-family:sans-serif;font-size:13;" transform="matrix(1 0 0 1 776 1989)">can be adjusted by modifying the x-location of the margin guidelines.</text>
  <text style="stroke:none;fill:black;font-family:sans-serif;font-size:13;" transform="matrix(1 0 0 1 776 2007)">Modifications are automatically applied proportionally to all</text>
  <text style="stroke:none;fill:black;font-family:sans-serif;font-size:13;" transform="matrix(1 0 0 1 776 2025)">scales and weights.</text>
  <g transform="matrix(0.2 0 0 0.2 1289 1933)">
   <path d="m14.209 9.32617 8.49609 8.54492c4.29688 4.3457 9.22852 4.05273 13.8672-1.07422l53.4668-58.9355-4.83398-4.88281-53.0762 58.3984c-1.75781 2.00195-3.41797 2.49023-5.76172 0.146484l-5.85938-5.81055c-2.34375-2.29492-1.80664-4.00391 0.195312-5.81055l57.373-54.0039-4.88281-4.83398-57.959 54.4434c-4.93164 4.58984-5.32227 9.47266-1.02539 13.8184Zm32.0801-90.9668c-2.09961 2.05078-2.24609 4.93164-1.07422 6.88477 1.17188 1.80664 3.4668 2.97852 6.68945 2.14844 7.32422-1.70898 14.9414-2.00195 22.0703 2.68555l-2.92969 7.27539c-1.70898 4.15039-0.830078 7.08008 1.85547 9.81445l11.4746 11.5723c2.44141 2.44141 4.49219 2.53906 7.32422 2.05078l5.32227-0.976562 3.32031 3.36914-0.195312 2.7832c-0.195312 2.49023 0.439453 4.39453 2.88086 6.78711l3.80859 3.71094c2.39258 2.39258 5.46875 2.53906 7.8125 0.195312l14.5508-14.5996c2.34375-2.34375 2.24609-5.32227-0.146484-7.71484l-3.85742-3.80859c-2.39258-2.39258-4.24805-3.17383-6.64062-2.97852l-2.88086 0.244141-3.22266-3.17383 1.2207-5.61523c0.634766-2.83203-0.146484-5.0293-3.07617-7.95898l-10.9863-10.9375c-16.6992-16.6016-38.8672-16.2109-53.3203-1.75781Zm7.4707 1.85547c12.1582-8.88672 28.6133-7.37305 39.7461 3.75977l12.1582 12.0605c1.17188 1.17188 1.36719 2.09961 1.02539 3.80859l-1.61133 7.42188 7.51953 7.42188 4.93164-0.292969c1.26953-0.0488281 1.66016 0.0488281 2.63672 1.02539l2.88086 2.88086-12.207 12.207-2.88086-2.88086c-0.976562-0.976562-1.12305-1.36719-1.07422-2.68555l0.341797-4.88281-7.4707-7.42188-7.61719 1.26953c-1.61133 0.341797-2.34375 0.195312-3.56445-0.976562l-10.0098-10.0098c-1.26953-1.17188-1.41602-2.00195-0.634766-3.85742l4.39453-10.4492c-7.8125-7.27539-17.9688-10.4004-28.125-7.42188-0.78125 0.195312-1.07422-0.439453-0.439453-0.976562Z"/>
  </g>
  <text style="stroke:none;fill:black;font-family:sans-serif;font-size:13;font-weight:bold;" transform="matrix(1 0 0 1 1289 1953)">Exporting</text>
  <text style="stroke:none;fill:black;font-family:sans-serif;font-size:13;" transform="matrix(1 0 0 1 1289 1971)">Symbols should be outlined when exporting to ensure the</text>
  <text style="stroke:none;fill:black;font-family:sans-serif;font-size:13;" transform="matrix(1 0 0 1 1289 1989)">design is preserved when submitting to Xcode.</text>
  <text id="template-version" style="stroke:none;fill:black;font-family:sans-serif;font-size:13;text-anchor:end;" transform="matrix(1 0 0 1 3036 1933)">Template v.5.0</text>
  <text style="stroke:none;fill:black;font-family:sans-serif;font-size:13;text-anchor:end;" transform="matrix(1 0 0 1 3036 1951)">Requires Xcode 15 or greater</text>
  <text id="descriptive-name" style="stroke:none;fill:black;font-family:sans-serif;font-size:13;text-anchor:end;" transform="matrix(1 0 0 1 3036 1969)">Generated from lectern</text>
  <text style="stroke:none;fill:black;font-family:sans-serif;font-size:13;text-anchor:end;" transform="matrix(1 0 0 1 3036 1987)">Typeset at 100.0 points</text>
  <text style="stroke:none;fill:black;font-family:sans-serif;font-size:13;" transform="matrix(1 0 0 1 263 726)">Small</text>
  <text style="stroke:none;fill:black;font-family:sans-serif;font-size:13;" transform="matrix(1 0 0 1 263 1156)">Medium</text>
  <text style="stroke:none;fill:black;font-family:sans-serif;font-size:13;" transform="matrix(1 0 0 1 263 1586)">Large</text>
 </g>
 <g id="Guides">
  <g id="H-reference" style="fill:#27AAE1;stroke:none;" transform="matrix(1 0 0 1 339 696)">
   <path d="M0.993654 0L3.63775 0L29.3281-67.1323L30.0303-67.1323L30.0303-70.459L28.1226-70.459ZM11.6885-24.4799L46.9815-24.4799L46.2315-26.7285L12.4385-26.7285ZM55.1196 0L57.7637 0L30.6382-70.459L29.4326-70.459L29.4326-67.1323Z"/>
  </g>
  <line id="Baseline-S" style="fill:none;stroke:#27AAE1;opacity:1;stroke-width:0.5;" x1="263" x2="3036" y1="696" y2="696"/>
  <line id="Capline-S" style="fill:none;stroke:#27AAE1;opacity:1;stroke-width:0.5;" x1="263" x2="3036" y1="625.541" y2="625.541"/>
  <g id="H-reference" style="fill:#27AAE1;stroke:none;" transform="matrix(1 0 0 1 339 1126)">
   <path d="M0.993654 0L3.63775 0L29.3281-67.1323L30.0303-67.1323L30.0303-70.459L28.1226-70.459ZM11.6885-24.4799L46.9815-24.4799L46.2315-26.7285L12.4385-26.7285ZM55.1196 0L57.7637 0L30.6382-70.459L29.4326-70.459L29.4326-67.1323Z"/>
  </g>
  <line id="Baseline-M" style="fill:none;stroke:#27AAE1;opacity:1;stroke-width:0.5;" x1="263" x2="3036" y1="1126" y2="1126"/>
  <line id="Capline-M" style="fill:none;stroke:#27AAE1;opacity:1;stroke-width:0.5;" x1="263" x2="3036" y1="1055.54" y2="1055.54"/>
  <g id="H-reference" style="fill:#27AAE1;stroke:none;" transform="matrix(1 0 0 1 339 1556)">
   <path d="M0.993654 0L3.63775 0L29.3281-67.1323L30.0303-67.1323L30.0303-70.459L28.1226-70.459ZM11.6885-24.4799L46.9815-24.4799L46.2315-26.7285L12.4385-26.7285ZM55.1196 0L57.7637 0L30.6382-70.459L29.4326-70.459L29.4326-67.1323Z"/>
  </g>
  <line id="Baseline-L" style="fill:none;stroke:#27AAE1;opacity:1;stroke-width:0.5;" x1="263" x2="3036" y1="1556" y2="1556"/>
  <line id="Capline-L" style="fill:none;stroke:#27AAE1;opacity:1;stroke-width:0.5;" x1="263" x2="3036" y1="1485.54" y2="1485.54"/>
  <line id="left-margin-Ultralight-S" style="fill:none;stroke:#00AEEF;stroke-width:0.5;opacity:1.0;" x1="516.35" x2="516.35" y1="600.785" y2="720.121"/>
  <line id="right-margin-Ultralight-S" style="fill:none;stroke:#00AEEF;stroke-width:0.5;opacity:1.0;" x1="603.072" x2="603.072" y1="600.785" y2="720.121"/>
  <line id="left-margin-Regular-S" style="fill:none;stroke:#00AEEF;stroke-width:0.5;opacity:1.0;" x1="1404.51" x2="1404.51" y1="600.785" y2="720.121"/>
  <line id="right-margin-Regular-S" style="fill:none;stroke:#00AEEF;stroke-width:0.5;opacity:1.0;" x1="1495.18" x2="1495.18" y1="600.785" y2="720.121"/>
  <line id="left-margin-Black-S" style="fill:none;stroke:#00AEEF;stroke-width:0.5;opacity:1.0;" x1="2885.5" x2="2885.5" y1="600.785" y2="720.121"/>
  <line id="right-margin-Black-S" style="fill:none;stroke:#00AEEF;stroke-width:0.5;opacity:1.0;" x1="2981.3" x2="2981.3" y1="600.785" y2="720.121"/>
 </g>
 <g id="Symbols">
  <g id="Black-S" transform="matrix(1 0 0 1 2885.5 696)">
   <path class="SFSymbolsPreviewWireframe" d="M49.33 2.053C42.96 2.053 37.39-1.803 35.14-7.772C34.27-9.883 33.87-13.397 33.87-18.808C33.87-19.719 32.77-20.199 32.12-19.559L27.07-14.559C26.67-14.17 26.04-14.164 25.64-14.546L23.8-16.299C23.38-16.696 23.37-17.359 23.78-17.766L33.57-27.554C33.76-27.746 33.87-28.007 33.87-28.279L33.87-50.82C33.87-64.116 39.71-72.053 49.51-72.053C56.25-72.053 60.6-67.773 60.6-61.15C60.6-57.531 59.43-53.559 57.13-49.343C55.22-45.514 50.92-39.844 44.02-32.048C43.85-31.861 43.76-31.617 43.76-31.366L43.76-15.644C43.76-4.648 48.21-3.376 51.56-3.376C55.93-3.376 59.58-7.588 62.1-15.558C62.25-16.023 62.72-16.299 63.2-16.197L65.81-15.639C66.33-15.526 66.66-14.996 66.52-14.475C63.83-4.125 57.4 2.053 49.33 2.053ZM49.88-66.81C48.37-66.81 43.76-66.81 43.76-54.449L43.76-41.575C43.76-40.625 44.94-40.194 45.54-40.929C51.87-48.653 55.08-54.817 55.08-59.288C55.08-62.72 54.18-66.81 49.88-66.81ZM49.33 1.107C57.37 1.107 62.84-5.254 65.32-13.68C65.49-14.24 65.13-14.815 64.56-14.938L63.91-15.076C63.4-15.187 62.88-14.886 62.71-14.386C59.76-5.655 55.7-2.43 51.56-2.43C46.44-2.43 42.81-5.686 42.81-15.644L42.81-31.725C42.81-31.976 42.91-32.22 43.07-32.408C49.72-39.899 54.28-45.754 56.3-49.796C58.54-53.891 59.65-57.706 59.65-61.149C59.65-67.105 55.84-71.107 49.51-71.107C41.23-71.107 34.81-64.686 34.81-50.82L34.81-27.887C34.81-27.615 34.7-27.354 34.51-27.162L25.14-17.783C24.73-17.375 24.74-16.712 25.15-16.315L25.63-15.865C26.03-15.483 26.66-15.489 27.05-15.878L33.07-21.826C33.71-22.467 34.81-22.008 34.81-21.097L34.81-18.808C34.81-13.69 35.18-10.153 36.02-8.106C38.16-2.429 43.37 1.107 49.33 1.107ZM49.88-67.757C53.23-67.757 56.02-65.523 56.02-59.288C56.02-54.095 52.16-47.131 44.59-38.321C43.97-37.607 42.81-38.045 42.81-38.986L42.81-54.449C42.81-64.872 46.07-67.757 49.88-67.757ZM49.33 3C42.56 3 36.64-1.097 34.25-7.438C33.35-9.642 32.92-13.27 32.92-18.808C32.92-18.886 32.83-18.925 32.77-18.87L27.68-13.832C26.95-13.113 25.78-13.102 25.04-13.808L23.09-15.669C22.72-16.021 22.51-16.506 22.5-17.017C22.49-17.527 22.69-18.018 23.05-18.378L32.62-27.946C32.81-28.138 32.92-28.399 32.92-28.671L32.92-50.82C32.92-61.542 37.28-73 49.51-73C56.71-73 61.55-68.238 61.55-61.149C61.55-57.371 60.34-53.246 57.97-48.89C56.02-45.005 51.88-39.507 44.97-31.689C44.8-31.501 44.71-31.257 44.71-31.007L44.71-15.644C44.71-5.609 48.37-4.323 51.56-4.323C56.51-4.323 59.53-10.588 61.2-15.843C61.49-16.773 62.45-17.327 63.4-17.123L66-16.564C66.51-16.456 66.95-16.146 67.22-15.707C67.49-15.267 67.57-14.736 67.44-14.236C64.63-3.443 57.86 3 49.33 3ZM49.88-65.863C48.6-65.863 44.71-65.863 44.71-54.449L44.71-44.262C44.71-43.3 45.9-42.877 46.49-43.637C51.57-50.188 54.13-55.436 54.13-59.288C54.13-63.651 52.7-65.863 49.88-65.863Z"/>
  </g>
  <g id="Regular-S" transform="matrix(1 0 0 1 1404.51 696)">
   <path class="SFSymbolsPreviewWireframe" d="M47-1.366C41.18-1.366 36.09-4.893 34.03-10.351C33.25-12.281 32.87-15.495 32.87-20.443C32.87-21.276 31.87-21.715 31.28-21.129L26.66-16.558C26.3-16.201 25.72-16.196 25.36-16.545L23.68-18.148C23.3-18.511 23.29-19.118 23.66-19.49L32.6-28.441C32.78-28.617 32.87-28.855 32.87-29.104L32.87-49.717C32.87-61.876 38.22-69.134 47.17-69.134C53.32-69.134 57.3-65.22 57.3-59.163C57.3-55.854 56.23-52.222 54.13-48.366C52.38-44.865 48.46-39.68 42.15-32.551C42-32.379 41.91-32.156 41.91-31.926L41.91-17.549C41.91-7.494 45.98-6.331 49.04-6.331C53.03-6.331 56.36-10.183 58.67-17.47C58.8-17.896 59.24-18.149 59.67-18.055L62.05-17.545C62.54-17.441 62.83-16.957 62.71-16.48C60.25-7.016 54.37-1.366 47-1.366ZM47.51-64.34C46.12-64.34 41.91-64.34 41.91-53.036L41.91-41.263C41.91-40.393 42.99-40 43.54-40.672C49.33-47.736 52.25-53.372 52.25-57.461C52.25-60.599 51.43-64.34 47.51-64.34ZM47-2.231C54.35-2.231 59.35-8.048 61.61-15.754C61.76-16.266 61.44-16.792 60.92-16.904L60.33-17.03C59.85-17.132 59.38-16.856 59.23-16.399C56.53-8.415 52.82-5.465 49.04-5.465C44.36-5.465 41.05-8.444 41.05-17.549L41.05-32.255C41.05-32.485 41.13-32.708 41.29-32.88C47.36-39.73 51.53-45.085 53.37-48.781C55.41-52.525 56.43-56.014 56.43-59.163C56.43-64.609 52.95-68.269 47.17-68.269C39.6-68.269 33.74-62.397 33.74-49.717L33.74-28.745C33.74-28.497 33.64-28.258 33.46-28.082L24.9-19.505C24.53-19.133 24.53-18.526 24.91-18.163L25.35-17.752C25.71-17.402 26.29-17.407 26.65-17.764L32.14-23.203C32.74-23.789 33.74-23.369 33.74-22.536L33.74-20.443C33.74-15.762 34.08-12.528 34.84-10.656C36.8-5.465 41.56-2.231 47-2.231ZM47.51-65.205C50.57-65.205 53.12-63.163 53.12-57.461C53.12-52.712 49.59-46.343 42.67-38.287C42.11-37.634 41.05-38.034 41.05-38.895L41.05-53.036C41.05-62.567 44.02-65.205 47.51-65.205ZM47-0.5C40.82-0.5 35.41-4.247 33.23-10.045C32.4-12.061 32.01-15.379 32.01-20.443C32.01-20.514 31.92-20.55 31.87-20.5L27.22-15.893C26.56-15.235 25.49-15.225 24.81-15.87L23.03-17.572C22.69-17.894 22.5-18.338 22.49-18.805C22.48-19.271 22.67-19.72 23-20.05L31.74-28.799C31.91-28.975 32.01-29.214 32.01-29.462L32.01-49.717C32.01-59.522 35.99-70 47.17-70C53.74-70 58.16-65.645 58.16-59.163C58.16-55.708 57.06-51.936 54.89-47.952C53.12-44.399 49.33-39.372 43.02-32.222C42.86-32.05 42.78-31.828 42.78-31.598L42.78-17.549C42.78-8.373 46.12-7.196 49.04-7.196C53.56-7.196 56.32-12.926 57.85-17.732C58.11-18.582 58.98-19.089 59.86-18.902L62.24-18.391C62.7-18.292 63.1-18.009 63.35-17.607C63.59-17.205 63.67-16.719 63.55-16.262C60.98-6.392 54.79-0.5 47-0.5ZM47.51-63.474C46.34-63.474 42.78-63.474 42.78-53.036L42.78-43.72C42.78-42.84 43.87-42.453 44.41-43.149C49.05-49.139 51.39-53.938 51.39-57.461C51.39-61.451 50.08-63.474 47.51-63.474Z"/>
  </g>
  <g id="Ultralight-S" transform="matrix(1 0 0 1 516.35 696)">
   <path class="SFSymbolsPreviewWireframe" d="M45.493-2.835C39.831-2.835 34.88-6.235 32.88-11.496C32.113-13.357 31.751-16.455 31.751-21.225C31.751-22.028 30.775-22.452 30.199-21.887L25.707-17.48C25.357-17.136 24.794-17.131 24.437-17.468L22.802-19.013C22.431-19.363 22.424-19.948 22.786-20.307L31.484-28.936C31.655-29.105 31.751-29.335 31.751-29.575L31.751-49.447C31.751-61.168 36.95-68.166 45.659-68.166C51.646-68.166 55.514-64.392 55.514-58.553C55.514-55.363 54.478-51.861 52.434-48.145C50.734-44.769 46.913-39.77 40.777-32.898C40.629-32.732 40.546-32.517 40.546-32.296L40.546-18.436C40.546-8.742 44.502-7.621 47.478-7.621C51.364-7.621 54.604-11.334 56.848-18.36C56.979-18.77 57.402-19.014 57.826-18.924L60.142-18.432C60.61-18.332 60.9-17.865 60.779-17.405C58.384-8.282 52.67-2.835 45.493-2.835ZM45.99-63.543C44.643-63.543 40.546-63.543 40.546-52.646L40.546-41.297C40.546-40.458 41.591-40.079 42.127-40.727C47.757-47.536 50.606-52.97 50.606-56.912C50.606-59.937 49.805-63.543 45.99-63.543ZM45.493-3.669C52.647-3.669 57.508-9.277 59.711-16.705C59.858-17.199 59.542-17.706 59.035-17.814L58.46-17.936C58-18.033 57.543-17.768 57.392-17.327C54.765-9.63 51.16-6.787 47.478-6.787C42.93-6.787 39.705-9.658 39.705-18.436L39.705-32.613C39.705-32.834 39.788-33.05 39.936-33.215C45.847-39.819 49.9-44.981 51.696-48.544C53.68-52.154 54.673-55.517 54.673-58.553C54.673-63.803 51.282-67.331 45.659-67.331C38.299-67.331 32.593-61.67 32.593-49.447L32.593-29.229C32.593-28.99 32.497-28.76 32.326-28.59L23.991-20.322C23.629-19.962 23.636-19.378 24.007-19.028L24.427-18.631C24.783-18.294 25.346-18.299 25.696-18.643L31.04-23.886C31.616-24.451 32.593-24.047 32.593-23.244L32.593-21.225C32.593-16.713 32.923-13.596 33.668-11.791C35.57-6.787 40.201-3.669 45.493-3.669ZM45.99-64.378C48.967-64.378 51.448-62.409 51.448-56.912C51.448-52.334 48.014-46.194 41.279-38.428C40.734-37.799 39.705-38.184 39.705-39.014L39.705-52.646C39.705-61.834 42.599-64.378 45.99-64.378ZM45.493-2C39.478-2 34.218-5.612 32.093-11.202C31.292-13.145 30.91-16.343 30.91-21.225C30.91-21.294 30.826-21.329 30.777-21.28L26.25-16.839C25.603-16.205 24.565-16.195 23.907-16.817L22.17-18.458C21.842-18.768 21.654-19.197 21.648-19.646C21.643-20.096 21.82-20.529 22.141-20.847L30.643-29.281C30.814-29.451 30.91-29.681 30.91-29.921L30.91-49.447C30.91-58.899 34.785-69 45.659-69C52.057-69 56.355-64.802 56.355-58.553C56.355-55.222 55.285-51.586 53.173-47.745C51.448-44.32 47.759-39.473 41.618-32.581C41.47-32.415 41.387-32.201 41.387-31.98L41.387-18.436C41.387-9.59 44.642-8.456 47.478-8.456C51.879-8.456 54.566-13.979 56.046-18.612C56.308-19.432 57.155-19.92 58.003-19.74L60.318-19.248C60.767-19.152 61.157-18.879 61.398-18.491C61.639-18.104 61.709-17.636 61.594-17.195C59.096-7.68 53.077-2 45.493-2ZM45.99-62.709C44.851-62.709 41.387-62.709 41.387-52.646L41.387-43.665C41.387-42.817 42.451-42.444 42.974-43.114C47.485-48.889 49.765-53.516 49.765-56.912C49.765-60.758 48.495-62.709 45.99-62.709Z"/>
  </g>
 </g>
</svg>
